<?xml version="1.0" standalone="no"?>
<!DOCTYPE svg PUBLIC "-//W3C//DTD SVG 20010904//EN"
 "http://www.w3.org/TR/2001/REC-SVG-20010904/DTD/svg10.dtd">
<svg version="1.0" xmlns="http://www.w3.org/2000/svg"
 width="200.000000pt" height="200.000000pt" viewBox="0 0 200.000000 200.000000"
 preserveAspectRatio="xMidYMid meet">
<metadata>
Created by potrace 1.14, written by Peter Selinger 2001-2017
</metadata>
<g transform="translate(0.000000,200.000000) scale(0.100000,-0.100000)"
fill="#000000" stroke="none">
<path d="M434 1739 c-63 -24 -113 -71 -145 -135 -19 -41 -23 -65 -24 -144 0
-114 7 -152 40 -222 46 -98 126 -170 202 -184 15 -3 30 -7 32 -10 11 -10 -40
-62 -105 -107 -85 -58 -129 -108 -149 -168 -12 -34 -27 -55 -55 -74 -58 -40
-138 -129 -160 -177 -27 -59 -25 -131 4 -193 23 -49 40 -70 103 -128 l31 -28
16 73 c43 193 102 280 233 345 63 31 84 36 166 41 106 5 149 -4 217 -50 57
-38 78 -69 120 -182 78 -207 181 -297 332 -291 73 3 109 21 152 78 25 32 34
59 40 110 1 15 5 28 7 29 2 0 24 -9 48 -22 100 -50 267 -18 364 69 116 105
101 319 -31 429 -59 50 -79 70 -133 134 -95 110 -198 159 -421 199 -70 12
-146 32 -176 47 -78 37 -100 75 -151 265 -51 187 -128 268 -290 303 -95 20
-205 17 -267 -7z m891 -1034 c28 -3 61 -8 75 -10 14 -2 52 -6 85 -10 106 -12
129 -16 173 -32 55 -21 74 -54 62 -109 -15 -66 -71 -101 -175 -110 -32 -2 -47
3 -76 26 -38 30 -49 30 -49 -2 0 -20 -11 -23 -26 -8 -12 12 -72 15 -104 6 -14
-5 -39 -22 -57 -38 l-31 -30 -11 38 c-16 56 -25 193 -17 257 l7 56 47 -14 c26
-7 70 -16 97 -20z m23 -331 c28 -20 30 -69 3 -84 -39 -21 -77 -12 -110 25 -17
20 -31 39 -31 43 0 12 50 30 85 31 17 1 41 -6 53 -15z"/>
</g>
</svg>
